<svg width="199" height="51" viewBox="0 0 199 51" fill="none" xmlns="http://www.w3.org/2000/svg">
<path d="M10.27 50V0.789999H19.65V50H10.27ZM0.61 9.05V0.789999H18.95V9.05H0.61ZM47.9431 50.7C44.0698 50.7 40.5698 49.65 37.4431 47.55C34.3165 45.45 31.8198 42.4867 29.9531 38.66C28.1331 34.8333 27.2231 30.3767 27.2231 25.29C27.2231 20.2033 28.1331 15.77 29.9531 11.99C31.7731 8.21 34.2231 5.27 37.3031 3.17C40.4298 1.07 43.9065 0.0199968 47.7331 0.0199968C51.6531 0.0199968 55.1531 1.07 58.2331 3.17C61.3598 5.27 63.8331 8.23333 65.6531 12.06C67.4731 15.84 68.3831 20.2967 68.3831 25.43C68.3831 30.5167 67.4731 34.9733 65.6531 38.8C63.8331 42.58 61.3831 45.52 58.3031 47.62C55.2231 49.6733 51.7698 50.7 47.9431 50.7ZM47.8031 42.09C50.0431 42.09 51.9798 41.46 53.6131 40.2C55.2465 38.94 56.5065 37.0733 57.3931 34.6C58.3265 32.1267 58.7931 29.0467 58.7931 25.36C58.7931 21.6733 58.3265 18.5933 57.3931 16.12C56.5065 13.6467 55.2231 11.8033 53.5431 10.59C51.9098 9.33 49.9731 8.7 47.7331 8.7C45.5398 8.7 43.6265 9.33 41.9931 10.59C40.3598 11.8033 39.0765 13.6467 38.1431 16.12C37.2565 18.5467 36.8131 21.6033 36.8131 25.29C36.8131 29.0233 37.2565 32.1267 38.1431 34.6C39.0765 37.0733 40.3598 38.94 41.9931 40.2C43.6265 41.46 45.5631 42.09 47.8031 42.09ZM94.1541 50.7C90.2807 50.7 86.7807 49.65 83.6541 47.55C80.5274 45.45 78.0307 42.4867 76.1641 38.66C74.3441 34.8333 73.4341 30.3767 73.4341 25.29C73.4341 20.2033 74.3441 15.77 76.1641 11.99C77.9841 8.21 80.4341 5.27 83.5141 3.17C86.6407 1.07 90.1174 0.0199968 93.9441 0.0199968C97.8641 0.0199968 101.364 1.07 104.444 3.17C107.571 5.27 110.044 8.23333 111.864 12.06C113.684 15.84 114.594 20.2967 114.594 25.43C114.594 30.5167 113.684 34.9733 111.864 38.8C110.044 42.58 107.594 45.52 104.514 47.62C101.434 49.6733 97.9807 50.7 94.1541 50.7ZM94.0141 42.09C96.2541 42.09 98.1907 41.46 99.8241 40.2C101.457 38.94 102.717 37.0733 103.604 34.6C104.537 32.1267 105.004 29.0467 105.004 25.36C105.004 21.6733 104.537 18.5933 103.604 16.12C102.717 13.6467 101.434 11.8033 99.7541 10.59C98.1207 9.33 96.1841 8.7 93.9441 8.7C91.7507 8.7 89.8374 9.33 88.2041 10.59C86.5707 11.8033 85.2874 13.6467 84.3541 16.12C83.4674 18.5467 83.0241 21.6033 83.0241 25.29C83.0241 29.0233 83.4674 32.1267 84.3541 34.6C85.2874 37.0733 86.5707 38.94 88.2041 40.2C89.8374 41.46 91.7741 42.09 94.0141 42.09ZM140.365 50.7C136.492 50.7 132.992 49.65 129.865 47.55C126.738 45.45 124.242 42.4867 122.375 38.66C120.555 34.8333 119.645 30.3767 119.645 25.29C119.645 20.2033 120.555 15.77 122.375 11.99C124.195 8.21 126.645 5.27 129.725 3.17C132.852 1.07 136.328 0.0199968 140.155 0.0199968C144.075 0.0199968 147.575 1.07 150.655 3.17C153.782 5.27 156.255 8.23333 158.075 12.06C159.895 15.84 160.805 20.2967 160.805 25.43C160.805 30.5167 159.895 34.9733 158.075 38.8C156.255 42.58 153.805 45.52 150.725 47.62C147.645 49.6733 144.192 50.7 140.365 50.7ZM140.225 42.09C142.465 42.09 144.402 41.46 146.035 40.2C147.668 38.94 148.928 37.0733 149.815 34.6C150.748 32.1267 151.215 29.0467 151.215 25.36C151.215 21.6733 150.748 18.5933 149.815 16.12C148.928 13.6467 147.645 11.8033 145.965 10.59C144.332 9.33 142.395 8.7 140.155 8.7C137.962 8.7 136.048 9.33 134.415 10.59C132.782 11.8033 131.498 13.6467 130.565 16.12C129.678 18.5467 129.235 21.6033 129.235 25.29C129.235 29.0233 129.678 32.1267 130.565 34.6C131.498 37.0733 132.782 38.94 134.415 40.2C136.048 41.46 137.985 42.09 140.225 42.09ZM166.906 30.54V22.56H198.616V30.54H166.906ZM178.736 9.89H186.856V43.14H178.736V9.89Z" fill="#D3AD7F"/>
</svg>
