<svg width="36" height="51" viewBox="0 0 36 51" fill="none" xmlns="http://www.w3.org/2000/svg">
<path d="M16.5 50.7C13.0933 50.7 9.99 50.1167 7.19 48.95C4.39 47.7367 2.05667 46.01 0.19 43.77L6.49 37.54C7.42333 38.94 8.75333 40.06 10.48 40.9C12.2533 41.74 14.19 42.16 16.29 42.16C18.2033 42.16 19.86 41.81 21.26 41.11C22.7067 40.41 23.8267 39.43 24.62 38.17C25.46 36.8633 25.88 35.3467 25.88 33.62C25.88 31.8 25.46 30.26 24.62 29C23.8267 27.74 22.7533 26.7833 21.4 26.13C20.0467 25.4767 18.53 25.15 16.85 25.15C15.0767 25.15 13.4667 25.3833 12.02 25.85C10.62 26.27 9.26667 26.97 7.96 27.95L8.52 21.93C9.40667 20.9967 10.34 20.25 11.32 19.69C12.3 19.0833 13.3967 18.64 14.61 18.36C15.87 18.0333 17.34 17.87 19.02 17.87C22.6133 17.87 25.6 18.6167 27.98 20.11C30.4067 21.5567 32.25 23.5167 33.51 25.99C34.77 28.4167 35.4 31.1 35.4 34.04C35.4 37.26 34.6067 40.13 33.02 42.65C31.4333 45.17 29.2167 47.1533 26.37 48.6C23.57 50 20.28 50.7 16.5 50.7ZM7.96 27.95L3.41 23.47L5.65 0.789999H14.26L11.74 23.82L7.96 27.95ZM7.12 9.05L5.65 0.789999H32.67V9.05H7.12Z" fill="#D3AD7F"/>
</svg>
