<svg width="166" height="51" viewBox="0 0 166 51" fill="none" xmlns="http://www.w3.org/2000/svg">
<path d="M16.5 50.7C13.0933 50.7 9.99 50.1167 7.19 48.95C4.39 47.7367 2.05667 46.01 0.19 43.77L6.49 37.54C7.42333 38.94 8.75333 40.06 10.48 40.9C12.2533 41.74 14.19 42.16 16.29 42.16C18.2033 42.16 19.86 41.81 21.26 41.11C22.7067 40.41 23.8267 39.43 24.62 38.17C25.46 36.8633 25.88 35.3467 25.88 33.62C25.88 31.8 25.46 30.26 24.62 29C23.8267 27.74 22.7533 26.7833 21.4 26.13C20.0467 25.4767 18.53 25.15 16.85 25.15C15.0767 25.15 13.4667 25.3833 12.02 25.85C10.62 26.27 9.26667 26.97 7.96 27.95L8.52 21.93C9.40667 20.9967 10.34 20.25 11.32 19.69C12.3 19.0833 13.3967 18.64 14.61 18.36C15.87 18.0333 17.34 17.87 19.02 17.87C22.6133 17.87 25.6 18.6167 27.98 20.11C30.4067 21.5567 32.25 23.5167 33.51 25.99C34.77 28.4167 35.4 31.1 35.4 34.04C35.4 37.26 34.6067 40.13 33.02 42.65C31.4333 45.17 29.2167 47.1533 26.37 48.6C23.57 50 20.28 50.7 16.5 50.7ZM7.96 27.95L3.41 23.47L5.65 0.789999H14.26L11.74 23.82L7.96 27.95ZM7.12 9.05L5.65 0.789999H32.67V9.05H7.12ZM60.9314 50.7C57.0581 50.7 53.5581 49.65 50.4314 47.55C47.3047 45.45 44.8081 42.4867 42.9414 38.66C41.1214 34.8333 40.2114 30.3767 40.2114 25.29C40.2114 20.2033 41.1214 15.77 42.9414 11.99C44.7614 8.21 47.2114 5.27 50.2914 3.17C53.4181 1.07 56.8947 0.0199968 60.7214 0.0199968C64.6414 0.0199968 68.1414 1.07 71.2214 3.17C74.3481 5.27 76.8214 8.23333 78.6414 12.06C80.4614 15.84 81.3714 20.2967 81.3714 25.43C81.3714 30.5167 80.4614 34.9733 78.6414 38.8C76.8214 42.58 74.3714 45.52 71.2914 47.62C68.2114 49.6733 64.7581 50.7 60.9314 50.7ZM60.7914 42.09C63.0314 42.09 64.9681 41.46 66.6014 40.2C68.2347 38.94 69.4947 37.0733 70.3814 34.6C71.3147 32.1267 71.7814 29.0467 71.7814 25.36C71.7814 21.6733 71.3147 18.5933 70.3814 16.12C69.4947 13.6467 68.2114 11.8033 66.5314 10.59C64.8981 9.33 62.9614 8.7 60.7214 8.7C58.5281 8.7 56.6147 9.33 54.9814 10.59C53.3481 11.8033 52.0647 13.6467 51.1314 16.12C50.2447 18.5467 49.8014 21.6033 49.8014 25.29C49.8014 29.0233 50.2447 32.1267 51.1314 34.6C52.0647 37.0733 53.3481 38.94 54.9814 40.2C56.6147 41.46 58.5514 42.09 60.7914 42.09ZM107.142 50.7C103.269 50.7 99.769 49.65 96.6423 47.55C93.5157 45.45 91.019 42.4867 89.1523 38.66C87.3323 34.8333 86.4223 30.3767 86.4223 25.29C86.4223 20.2033 87.3323 15.77 89.1523 11.99C90.9723 8.21 93.4223 5.27 96.5023 3.17C99.629 1.07 103.106 0.0199968 106.932 0.0199968C110.852 0.0199968 114.352 1.07 117.432 3.17C120.559 5.27 123.032 8.23333 124.852 12.06C126.672 15.84 127.582 20.2967 127.582 25.43C127.582 30.5167 126.672 34.9733 124.852 38.8C123.032 42.58 120.582 45.52 117.502 47.62C114.422 49.6733 110.969 50.7 107.142 50.7ZM107.002 42.09C109.242 42.09 111.179 41.46 112.812 40.2C114.446 38.94 115.706 37.0733 116.592 34.6C117.526 32.1267 117.992 29.0467 117.992 25.36C117.992 21.6733 117.526 18.5933 116.592 16.12C115.706 13.6467 114.422 11.8033 112.742 10.59C111.109 9.33 109.172 8.7 106.932 8.7C104.739 8.7 102.826 9.33 101.192 10.59C99.559 11.8033 98.2757 13.6467 97.3423 16.12C96.4557 18.5467 96.0123 21.6033 96.0123 25.29C96.0123 29.0233 96.4557 32.1267 97.3423 34.6C98.2757 37.0733 99.559 38.94 101.192 40.2C102.826 41.46 104.762 42.09 107.002 42.09ZM133.683 30.54V22.56H165.393V30.54H133.683ZM145.513 9.89H153.633V43.14H145.513V9.89Z" fill="#D3AD7F"/>
</svg>
