<svg width="42" height="36" viewBox="0 0 42 36" fill="none" xmlns="http://www.w3.org/2000/svg">
<g clip-path="url(#clip0_20_5966)">
<path d="M16.8822 20.2354V35.1735H0.0869141V23.3779C0.0869141 17.0001 1.01999 12.3717 2.87058 9.52337C5.31212 5.69984 9.16883 2.82058 14.4407 0.870117L18.2663 5.87012C15.0783 6.96919 12.7301 8.59457 11.2216 10.7618C9.71312 12.9289 8.87335 16.0868 8.70229 20.2354H16.8822Z" fill="white"/>
<path d="M39.8511 20.2353V35.1734H23.0713V23.3777C23.0713 17 24.0044 12.3715 25.855 9.50774C28.2965 5.69969 32.1532 2.82044 37.4251 0.854492L41.2507 5.85449C38.0627 6.95356 35.7144 8.57895 34.206 10.7461C32.6975 12.9133 31.8577 16.0712 31.6867 20.2198H39.8666L39.8511 20.2353Z" fill="white"/>
</g>
<defs>
<clipPath id="clip0_20_5966">
<rect width="41.1641" height="34.3034" fill="white" transform="translate(0.0869141 0.870117)"/>
</clipPath>
</defs>
</svg>
