<svg width="266" height="44" viewBox="0 0 266 44" fill="none" xmlns="http://www.w3.org/2000/svg">
<path d="M62.4613 0.562815C62.5264 0.194944 62.6557 -4.57764e-05 62.8295 -4.57764e-05C63.0029 -4.57764e-05 63.1322 0.108591 63.4129 0.670732L69.3182 12.8763L75.2028 0.51874C75.3757 0.173378 75.4835 -4.57764e-05 75.6779 -4.57764e-05C75.8733 -4.57764e-05 76.003 0.216013 76.0682 0.670732L78.0365 14.0458C78.2305 15.4084 78.4465 16.0362 79.0963 16.2312C79.7232 16.4256 80.1561 16.4477 80.4372 16.4477C80.6321 16.4477 80.7834 16.4688 80.7834 16.599C80.7834 16.7721 80.5239 16.8372 80.2212 16.8372C79.681 16.8372 76.6955 16.7721 75.8297 16.7073C75.3321 16.6643 75.2028 16.599 75.2028 16.4688C75.2028 16.3614 75.289 16.2957 75.4404 16.2312C75.5706 16.188 75.6357 15.9067 75.549 15.3001L74.2508 5.77853H74.1641L69.4484 15.6045C68.9504 16.6202 68.843 16.8161 68.6477 16.8161C68.4541 16.8161 68.2372 16.3824 67.8906 15.7333C67.3714 14.7377 65.6632 11.427 65.4036 10.8208C65.2087 10.3666 63.9109 7.63865 63.1537 6.01634H63.0675L61.943 14.6302C61.899 15.0193 61.8779 15.3001 61.8779 15.6466C61.8779 16.0586 62.1586 16.2522 62.5264 16.3394C62.9166 16.4256 63.2193 16.4477 63.4353 16.4477C63.6087 16.4477 63.7595 16.4907 63.7595 16.599C63.7595 16.7936 63.5642 16.8372 63.2404 16.8372C62.3319 16.8372 61.3588 16.7721 60.9699 16.7721C60.5581 16.7721 59.5194 16.8372 58.8274 16.8372C58.6109 16.8372 58.4385 16.7936 58.4385 16.599C58.4385 16.4907 58.5678 16.4477 58.7847 16.4477C58.9581 16.4477 59.1089 16.4477 59.4332 16.3824C60.0381 16.2522 60.2119 15.4084 60.3201 14.6726L62.4613 0.562815Z" fill="#979797"/>
<path d="M93.2212 11.1888C93.3074 11.1888 93.3294 11.1453 93.3074 11.0801L91.5116 6.40627C91.4905 6.34099 91.4689 6.23271 91.4254 6.23271C91.3607 6.23271 91.3396 6.34099 91.3171 6.40627L89.4786 11.059C89.4346 11.1453 89.4786 11.1888 89.5437 11.1888H93.2212ZM89.154 12.2055C89.0457 12.2055 89.0246 12.2271 88.9806 12.3354L87.9648 14.8033C87.7699 15.2575 87.6837 15.7117 87.6837 15.9279C87.6837 16.2522 87.8557 16.4477 88.4404 16.4477H88.722C88.9595 16.4477 89.0026 16.5339 89.0026 16.6422C89.0026 16.7936 88.8944 16.8372 88.6999 16.8372C88.0726 16.8372 87.1852 16.7721 86.5799 16.7721C86.3854 16.7721 85.3687 16.8372 84.374 16.8372C84.1356 16.8372 84.0273 16.7936 84.0273 16.6422C84.0273 16.5339 84.0925 16.4477 84.2442 16.4477C84.4162 16.4477 84.6331 16.4256 84.8065 16.4256C85.6714 16.2957 85.9965 15.7333 86.3854 14.8033L91.3607 3.22391C91.5771 2.70463 91.7285 2.48894 91.9229 2.48894C92.2036 2.48894 92.2907 2.66231 92.4852 3.073C92.9392 4.09018 96.12 11.6214 97.3311 14.4139C98.0667 16.0797 98.6069 16.317 98.9532 16.3824C99.2338 16.4256 99.4507 16.4477 99.6667 16.4477C99.8401 16.4477 99.9263 16.5128 99.9263 16.6422C99.9263 16.7936 99.8185 16.8372 99.1045 16.8372C98.4336 16.8372 97.0491 16.8372 95.4491 16.7936C95.1028 16.7721 94.8864 16.7721 94.8864 16.6422C94.8864 16.5339 94.9299 16.4688 95.1248 16.4477C95.2542 16.4256 95.3844 16.2522 95.2982 16.0362L93.8266 12.3354C93.7834 12.2271 93.7179 12.2055 93.6317 12.2055H89.154Z" fill="#979797"/>
<path d="M108.747 9.67394C108.747 9.86839 108.79 9.93349 108.92 9.99859C109.331 10.1281 109.893 10.1717 110.369 10.1717C111.127 10.1717 111.386 10.1066 111.71 9.86839C112.294 9.45685 112.943 8.65672 112.943 7.14161C112.943 4.5444 111.169 3.87398 110.044 3.87398C109.569 3.87398 109.115 3.89523 108.92 3.93926C108.79 3.98226 108.747 4.04669 108.747 4.19796V9.67394ZM106.323 8.24464C106.323 5.45366 106.323 4.93402 106.302 4.34941C106.259 3.72217 106.086 3.52718 105.48 3.35434C105.329 3.31117 105.005 3.28902 104.724 3.28902C104.529 3.28902 104.399 3.22392 104.399 3.09457C104.399 2.96473 104.551 2.92119 104.832 2.92119C105.827 2.92119 107.038 2.96472 107.427 2.96472C108.076 2.96472 109.807 2.92119 110.391 2.92119C111.602 2.92119 112.987 3.03068 114.003 3.7011C114.544 4.06861 115.345 4.99948 115.345 6.23271C115.345 7.59637 114.566 8.808 112.706 10.3015C114.392 12.3789 115.734 14.0458 116.88 15.1924C117.94 16.2522 118.611 16.3394 118.913 16.4037C119.107 16.4477 119.217 16.4477 119.368 16.4477C119.52 16.4477 119.606 16.555 119.606 16.6422C119.606 16.7936 119.476 16.8372 119.238 16.8372H117.421C116.361 16.8372 115.842 16.7298 115.345 16.4688C114.522 16.0586 113.809 15.1924 112.748 13.7642C111.991 12.7686 111.191 11.5342 110.953 11.2534C110.846 11.1453 110.736 11.1241 110.607 11.1241L108.899 11.0801C108.812 11.0801 108.747 11.1241 108.747 11.231V11.4921C108.747 13.2012 108.768 14.6302 108.854 15.4084C108.92 15.949 109.006 16.2957 109.59 16.3824C109.872 16.4256 110.282 16.4477 110.521 16.4477C110.672 16.4477 110.759 16.555 110.759 16.6422C110.759 16.7721 110.606 16.8372 110.369 16.8372C109.267 16.8372 107.687 16.7721 107.406 16.7721C107.038 16.7721 105.827 16.8372 105.069 16.8372C104.832 16.8372 104.703 16.7721 104.703 16.6422C104.703 16.555 104.767 16.4477 105.005 16.4477C105.286 16.4477 105.502 16.4256 105.676 16.3824C106.065 16.2957 106.172 15.949 106.237 15.4084C106.323 14.6302 106.323 13.1792 106.323 11.4921V8.24464Z" fill="#979797"/>
<path d="M125.491 8.24464C125.491 5.45366 125.491 4.93402 125.47 4.34941C125.427 3.72217 125.232 3.50611 124.821 3.37537C124.604 3.31117 124.366 3.28902 124.128 3.28902C123.934 3.28902 123.825 3.24638 123.825 3.073C123.825 2.96473 123.977 2.92119 124.279 2.92119C124.994 2.92119 126.292 2.96472 126.832 2.96472C127.309 2.96472 128.541 2.92119 129.277 2.92119C129.514 2.92119 129.666 2.96473 129.666 3.073C129.666 3.24638 129.559 3.28902 129.363 3.28902C129.168 3.28902 129.017 3.31117 128.8 3.35434C128.283 3.44101 128.131 3.7011 128.087 4.34941C128.044 4.93402 128.044 5.45366 128.044 8.24464V11.4921C128.044 13.2663 128.044 14.7377 128.131 15.5172C128.195 16.0146 128.325 16.2957 128.888 16.3824C129.147 16.4256 129.58 16.4477 129.861 16.4477C130.078 16.4477 130.164 16.555 130.164 16.6422C130.164 16.7721 130.013 16.8372 129.797 16.8372C128.541 16.8372 127.244 16.7721 126.725 16.7721C126.292 16.7721 124.994 16.8372 124.237 16.8372C123.999 16.8372 123.87 16.7721 123.87 16.6422C123.87 16.555 123.934 16.4477 124.172 16.4477C124.453 16.4477 124.669 16.4256 124.843 16.3824C125.232 16.2957 125.339 16.0362 125.404 15.4948C125.491 14.7377 125.491 13.2663 125.491 11.4921V8.24464Z" fill="#979797"/>
<path d="M150.022 15.6045C150.022 16.1008 150.022 16.1224 149.784 16.2523C148.507 16.8809 146.625 17.0745 145.133 17.0745C140.461 17.0745 136.329 14.9543 136.329 9.86843C136.329 6.92617 137.908 4.86877 139.66 3.85295C141.478 2.79134 143.186 2.66235 144.787 2.66235C146.106 2.66235 147.772 2.87895 148.161 2.96476C148.55 3.03072 149.221 3.13778 149.675 3.15975C149.892 3.18186 149.936 3.24642 149.936 3.37541C149.936 3.59232 149.805 4.09021 149.805 6.40631C149.805 6.68711 149.697 6.81646 149.546 6.81646C149.416 6.81646 149.372 6.73011 149.351 6.57919C149.307 6.16765 149.2 5.58358 148.702 5.06462C148.14 4.47965 146.713 3.65711 144.57 3.65711C143.532 3.65711 142.213 3.67818 140.893 4.73943C139.834 5.60479 139.141 6.96827 139.141 9.21836C139.141 13.1792 141.693 16.0587 145.76 16.0587C146.258 16.0587 146.647 16.0587 147.102 15.8628C147.383 15.7333 147.47 15.5389 147.47 15.214V13.526C147.47 12.6176 147.47 11.9247 147.448 11.3618C147.425 10.7342 147.231 10.5397 146.625 10.3667C146.474 10.3226 146.149 10.3015 145.891 10.3015C145.717 10.3015 145.587 10.2152 145.587 10.1066C145.587 9.95478 145.739 9.93353 145.998 9.93353C146.994 9.93353 148.356 9.97671 148.918 9.97671C149.524 9.97671 150.519 9.93353 151.147 9.93353C151.405 9.93353 151.536 9.95478 151.536 10.1066C151.536 10.2152 151.428 10.3015 151.298 10.3015C151.147 10.3015 150.995 10.3226 150.779 10.3667C150.26 10.4533 150.065 10.7122 150.043 11.3618C150.022 11.9247 150.022 12.6598 150.022 13.5692V15.6045Z" fill="#979797"/>
<path d="M160.851 14.3267C160.895 15.7558 161.133 16.1881 161.501 16.317C161.825 16.4257 162.193 16.4478 162.495 16.4478C162.712 16.4478 162.82 16.534 162.82 16.6422C162.82 16.7937 162.647 16.8372 162.388 16.8372C161.154 16.8372 160.268 16.7721 159.922 16.7721C159.749 16.7721 158.841 16.8372 157.867 16.8372C157.607 16.8372 157.434 16.8162 157.434 16.6422C157.434 16.534 157.563 16.4478 157.737 16.4478C157.996 16.4478 158.343 16.4257 158.602 16.3614C159.1 16.2312 159.165 15.7333 159.186 14.1321L159.358 3.22398C159.358 2.85701 159.489 2.59728 159.684 2.59728C159.922 2.59728 160.181 2.87898 160.507 3.20291C160.744 3.44107 163.599 6.36231 166.367 9.06748C167.665 10.3451 170.196 12.9415 170.478 13.2012H170.564L170.37 5.02075C170.347 3.8953 170.175 3.57096 169.721 3.39741C169.439 3.28908 168.985 3.28908 168.726 3.28908C168.487 3.28908 168.423 3.20291 168.423 3.09463C168.423 2.94318 168.617 2.92126 168.899 2.92126C169.893 2.92126 170.911 2.96479 171.321 2.96479C171.538 2.96479 172.251 2.92126 173.182 2.92126C173.441 2.92126 173.615 2.94318 173.615 3.09463C173.615 3.20291 173.505 3.28908 173.29 3.28908C173.095 3.28908 172.944 3.28908 172.707 3.35441C172.187 3.50618 172.036 3.83051 172.014 4.8688L171.797 16.4689C171.797 16.8809 171.646 17.0535 171.495 17.0535C171.17 17.0535 170.911 16.8588 170.715 16.6644C169.525 15.56 167.147 13.2884 165.157 11.3618C163.08 9.3711 161.068 7.14167 160.7 6.81648H160.635L160.851 14.3267Z" fill="#979797"/>
<path d="M184.234 12.0541C184.234 11.059 184.061 10.6694 183.802 10.1281C183.672 9.84732 181.076 5.80064 180.405 4.82659C179.93 4.15582 179.54 3.72217 179.174 3.52718C178.935 3.39734 178.61 3.28902 178.372 3.28902C178.221 3.28902 178.091 3.22392 178.091 3.09457C178.091 2.96473 178.221 2.92119 178.459 2.92119C178.783 2.92119 180.211 2.96472 180.838 2.96472C181.25 2.96472 182.136 2.92119 183.002 2.92119C183.174 2.92119 183.283 2.96473 183.283 3.09457C183.283 3.24638 183.153 3.24638 182.85 3.33309C182.699 3.37537 182.59 3.46262 182.59 3.61443C182.59 3.76588 182.677 3.98226 182.829 4.24199C183.174 4.80503 185.662 9.11126 185.987 9.63077C186.225 9.19708 188.539 5.25921 188.82 4.69621C189.015 4.28516 189.101 3.96033 189.101 3.72217C189.101 3.54965 189.015 3.37537 188.691 3.31117C188.517 3.26799 188.344 3.24638 188.344 3.09457C188.344 2.96473 188.453 2.92119 188.668 2.92119C189.297 2.92119 189.967 2.96472 190.529 2.96472C190.941 2.96472 192.195 2.92119 192.563 2.92119C192.779 2.92119 192.908 2.96473 192.908 3.073C192.908 3.20285 192.757 3.28902 192.54 3.28902C192.347 3.28902 191.999 3.37537 191.718 3.50611C191.308 3.7011 191.135 3.87398 190.724 4.37098C190.097 5.1074 187.371 9.47931 187.026 10.2575C186.744 10.9287 186.787 11.4921 186.787 12.0981V13.5692C186.787 13.8724 186.787 14.6302 186.83 15.4084C186.873 15.949 187.047 16.2957 187.609 16.3824C187.89 16.4256 188.302 16.4477 188.561 16.4477C188.777 16.4477 188.885 16.555 188.885 16.6422C188.885 16.7721 188.734 16.8372 188.474 16.8372C187.284 16.8372 186.008 16.7721 185.489 16.7721C185.014 16.7721 183.737 16.8372 183.023 16.8372C182.764 16.8372 182.613 16.7936 182.613 16.6422C182.613 16.555 182.699 16.4477 182.915 16.4477C183.174 16.4477 183.411 16.4256 183.586 16.3824C183.975 16.2957 184.126 15.949 184.169 15.4084C184.234 14.6302 184.234 13.8724 184.234 13.5692V12.0541Z" fill="#979797"/>
<path d="M42.6438 33.4095C42.6438 28.5618 39.8537 25.5539 36.3065 25.5539C33.8182 25.5539 30.9845 26.9395 30.9845 32.3276C30.9845 36.8295 33.4724 40.3995 37.6259 40.3995C39.1393 40.3995 42.6438 39.6645 42.6438 33.4095ZM28 32.9979C28 29.2982 30.4439 24.5151 36.9339 24.5151C42.32 24.5151 45.6724 27.6534 45.6724 32.6084C45.6724 37.5644 42.2109 41.4827 36.717 41.4827C30.5085 41.4827 28 36.8295 28 32.9979Z" fill="#979797"/>
<path d="M53.4364 32.5873C53.4364 29.7954 53.4364 29.2768 53.4139 28.6918C53.3708 28.0637 53.1984 27.8693 52.5921 27.6959C52.4408 27.6532 52.1161 27.632 51.8354 27.632C51.6405 27.632 51.5107 27.5669 51.5107 27.4361C51.5107 27.3063 51.6616 27.2641 51.9436 27.2641C52.9379 27.2641 54.1499 27.3063 54.6911 27.3063C55.4693 27.3063 56.9831 27.2641 57.8489 27.2641C60.2286 27.2641 61.0931 28.0423 61.3957 28.3019C61.808 28.6918 62.3478 29.5146 62.3478 30.5093C62.3478 33.1069 60.2712 34.9679 57.5674 34.9679C57.4812 34.9679 57.0923 34.9679 57.0047 34.9454C56.8965 34.9454 56.7676 34.8812 56.7676 34.7519C56.7676 34.6004 56.9831 34.5132 57.3949 34.5132C58.4543 34.5132 59.947 33.4093 59.947 31.5272C59.947 30.9207 59.8819 29.7096 58.8221 28.7998C58.1296 28.1936 57.3509 28.1074 56.9189 28.1074C56.6383 28.1074 56.27 28.1285 56.0967 28.1936C55.9884 28.2376 55.9458 28.3456 55.9458 28.5405V35.8333C55.9458 37.5222 55.9458 38.9714 56.0316 39.7726C56.0967 40.2919 56.2049 40.6378 56.7676 40.7245C57.0483 40.7672 57.4601 40.7896 57.7407 40.7896C57.9563 40.7896 58.0434 40.8979 58.0434 40.9843C58.0434 41.1141 57.8921 41.1787 57.6972 41.1787C56.4214 41.1787 55.0804 41.1141 54.5824 41.1141C54.1499 41.1141 52.9379 41.1787 52.1808 41.1787C51.9436 41.1787 51.813 41.1141 51.813 40.9843C51.813 40.8979 51.8785 40.7896 52.1161 40.7896C52.3977 40.7896 52.6146 40.7672 52.7866 40.7245C53.1763 40.6378 53.2846 40.2919 53.3497 39.7505C53.4364 38.9714 53.4364 37.5222 53.4364 35.8333V32.5873Z" fill="#979797"/>
<path d="M70.6499 32.5874C70.6499 29.7955 70.6499 29.2769 70.6288 28.692C70.5852 28.0639 70.4128 27.8694 69.807 27.696C69.6556 27.6533 69.3305 27.6321 69.0498 27.6321C68.8549 27.6321 68.7256 27.567 68.7256 27.4363C68.7256 27.3064 68.8765 27.2643 69.1571 27.2643C70.1532 27.2643 71.3648 27.3064 71.9055 27.3064C72.5108 27.3064 76.7285 27.328 77.0963 27.3064C77.443 27.2853 77.7452 27.2202 77.897 27.199C78.0057 27.1765 78.1135 27.1123 78.2001 27.1123C78.3079 27.1123 78.3299 27.199 78.3299 27.2853C78.3299 27.4152 78.2212 27.6321 78.179 28.4754C78.1566 28.6704 78.1135 29.4702 78.0694 29.6872C78.0483 29.7734 78.0057 29.99 77.8539 29.99C77.7241 29.99 77.7017 29.9042 77.7017 29.7523C77.7017 29.6221 77.6805 29.2982 77.5732 29.0811C77.421 28.7576 77.2696 28.4966 76.3181 28.4103C75.9929 28.3671 73.7215 28.3245 73.3326 28.3245C73.2464 28.3245 73.2024 28.3892 73.2024 28.4966V33.0419C73.2024 33.1499 73.2244 33.2369 73.3326 33.2369C73.7655 33.2369 76.2318 33.2369 76.6638 33.1934C77.1179 33.1499 77.3985 33.107 77.5732 32.9117C77.7241 32.7819 77.7888 32.6741 77.8759 32.6741C77.9621 32.6741 78.0272 32.7602 78.0272 32.8686C78.0272 32.9763 77.9832 33.2796 77.8759 34.2106C77.8319 34.5784 77.7888 35.3136 77.7888 35.4444C77.7888 35.5953 77.7663 35.8549 77.5943 35.8549C77.4641 35.8549 77.421 35.7911 77.421 35.7039C77.3985 35.5095 77.3985 35.2713 77.3563 35.0328C77.2472 34.6648 77.0096 34.384 76.2961 34.3189C75.9503 34.2752 73.7866 34.2325 73.3115 34.2325C73.2244 34.2325 73.2024 34.3189 73.2024 34.4272V35.8986C73.2024 36.5262 73.1813 38.0834 73.2024 38.6251C73.2464 39.88 73.8302 40.1622 75.7774 40.1622C76.2745 40.1622 77.0752 40.1411 77.5732 39.924C78.0483 39.7071 78.2648 39.3184 78.3946 38.5614C78.4372 38.3656 78.4812 38.2792 78.6106 38.2792C78.7619 38.2792 78.7839 38.5169 78.7839 38.7124C78.7839 39.123 78.633 40.3782 78.5235 40.7462C78.3946 41.2217 78.2212 41.2217 77.5081 41.2217C76.0805 41.2217 74.9327 41.2004 74.0035 41.1564C73.0731 41.1353 72.3595 41.1143 71.7972 41.1143C71.5803 41.1143 71.1694 41.1353 70.715 41.1353C70.261 41.1564 69.7854 41.1789 69.3952 41.1789C69.1572 41.1789 69.0283 41.1143 69.0283 40.9844C69.0283 40.8981 69.092 40.7898 69.3305 40.7898C69.6121 40.7898 69.8281 40.7673 70.0014 40.7247C70.3917 40.638 70.499 40.2921 70.5636 39.7506C70.6499 38.9716 70.6499 37.5223 70.6499 35.8335V32.5874Z" fill="#979797"/>
<path d="M89.43 34.0155C89.43 34.2105 89.474 34.275 89.6033 34.3398C90.0142 34.47 90.5764 34.5132 91.0529 34.5132C91.8096 34.5132 92.0692 34.4489 92.3943 34.2105C92.9785 33.7989 93.6265 32.9977 93.6265 31.4837C93.6265 28.8865 91.8536 28.2157 90.7282 28.2157C90.2518 28.2157 89.7977 28.2376 89.6033 28.2799C89.474 28.3243 89.43 28.3891 89.43 28.5405V34.0155ZM87.0076 32.5873C87.0076 29.7954 87.0077 29.2768 86.9856 28.6918C86.943 28.0637 86.7701 27.8693 86.1638 27.6959C86.0125 27.6532 85.6874 27.632 85.4067 27.632C85.2123 27.632 85.082 27.5669 85.082 27.4361C85.082 27.3063 85.2334 27.2641 85.5149 27.2641C86.5101 27.2641 87.7212 27.3063 88.1106 27.3063C88.759 27.3063 90.4902 27.2641 91.074 27.2641C92.2861 27.2641 93.6701 27.371 94.6868 28.0423C95.2279 28.4101 96.0277 29.3412 96.0277 30.5744C96.0277 31.9379 95.249 33.1497 93.3885 34.6427C95.0766 36.7207 96.4166 38.3865 97.564 39.5348C98.6234 40.5952 99.2938 40.681 99.5969 40.7461C99.7918 40.7896 99.8996 40.7896 100.051 40.7896C100.202 40.7896 100.289 40.8979 100.289 40.9843C100.289 41.1352 100.16 41.1787 99.9216 41.1787H98.1042C97.0444 41.1787 96.5253 41.0704 96.0277 40.8112C95.2059 40.3993 94.4923 39.5348 93.4325 38.1057C92.675 37.1096 91.8747 35.8772 91.6371 35.5952C91.528 35.4869 91.4207 35.4653 91.2905 35.4653L89.5808 35.423C89.4951 35.423 89.43 35.4653 89.43 35.5739V35.8333C89.43 37.5432 89.452 38.9714 89.5386 39.7505C89.6033 40.2919 89.6904 40.6378 90.2742 40.7245C90.5549 40.7672 90.9667 40.7896 91.2042 40.7896C91.3556 40.7896 91.4418 40.8979 91.4418 40.9843C91.4418 41.1141 91.2905 41.1787 91.0529 41.1787C89.9491 41.1787 88.3701 41.1141 88.0886 41.1141C87.7212 41.1141 86.5101 41.1787 85.7529 41.1787C85.5149 41.1787 85.3852 41.1141 85.3852 40.9843C85.3852 40.8979 85.4503 40.7896 85.6874 40.7896C85.9689 40.7896 86.1858 40.7672 86.3583 40.7245C86.7485 40.6378 86.8563 40.2919 86.9219 39.7505C87.0077 38.9714 87.0076 37.5222 87.0076 35.8333V32.5873Z" fill="#979797"/>
<path d="M111.055 35.5304C111.141 35.5304 111.163 35.4869 111.141 35.423L109.346 30.7473C109.324 30.6827 109.302 30.5744 109.26 30.5744C109.195 30.5744 109.172 30.6827 109.151 30.7473L107.313 35.4005C107.27 35.4869 107.313 35.5304 107.377 35.5304H111.055ZM106.988 36.5476C106.881 36.5476 106.858 36.5687 106.816 36.6775L105.798 39.1448C105.604 39.599 105.517 40.0534 105.517 40.27C105.517 40.5952 105.691 40.7896 106.274 40.7896H106.555C106.794 40.7896 106.837 40.876 106.837 40.9843C106.837 41.1352 106.729 41.1787 106.533 41.1787C105.907 41.1787 105.02 41.1141 104.414 41.1141C104.219 41.1141 103.202 41.1787 102.207 41.1787C101.97 41.1787 101.861 41.1352 101.861 40.9843C101.861 40.876 101.926 40.7896 102.078 40.7896C102.252 40.7896 102.468 40.7672 102.64 40.7672C103.505 40.6378 103.831 40.0748 104.219 39.1448L109.195 27.5669C109.411 27.047 109.562 26.831 109.757 26.831C110.038 26.831 110.125 27.003 110.32 27.4151C110.774 28.4318 113.953 35.9635 115.164 38.7545C115.9 40.4212 116.441 40.6599 116.787 40.7245C117.069 40.7672 117.285 40.7896 117.501 40.7896C117.675 40.7896 117.76 40.8535 117.76 40.9843C117.76 41.1352 117.652 41.1787 116.939 41.1787C116.268 41.1787 114.883 41.1787 113.283 41.1352C112.936 41.1141 112.721 41.1141 112.721 40.9843C112.721 40.876 112.763 40.8112 112.959 40.7896C113.089 40.7672 113.217 40.5952 113.131 40.3781L111.661 36.6775C111.617 36.5687 111.552 36.5476 111.466 36.5476H106.988Z" fill="#979797"/>
<path d="M141.71 31.6999C141.775 31.6999 141.84 31.6571 141.84 31.5485V31.0942C141.84 27.8045 141.84 27.1988 141.797 26.5065C141.754 25.7706 141.581 25.4233 140.867 25.2724C140.694 25.2288 140.326 25.2073 140.023 25.2073C139.786 25.2073 139.656 25.165 139.656 25.0132C139.656 24.8617 139.807 24.8182 140.11 24.8182C141.278 24.8182 142.641 24.8829 143.225 24.8829C143.743 24.8829 145.107 24.8182 145.95 24.8182C146.253 24.8182 146.404 24.8617 146.404 25.0132C146.404 25.165 146.275 25.2073 146.015 25.2073C145.842 25.2073 145.648 25.2288 145.388 25.2724C144.804 25.3806 144.631 25.7482 144.588 26.5065C144.544 27.1988 144.544 27.8045 144.544 31.0942V34.9032C144.544 36.894 144.544 38.6034 144.653 39.5348C144.717 40.141 144.847 40.6162 145.496 40.7021C145.798 40.7461 146.275 40.7896 146.6 40.7896C146.837 40.7896 146.946 40.8535 146.946 40.9632C146.946 41.1141 146.772 41.1787 146.512 41.1787C145.107 41.1787 143.743 41.1141 143.138 41.1141C142.641 41.1141 141.278 41.1787 140.434 41.1787C140.131 41.1787 139.979 41.1141 139.979 40.9632C139.979 40.8535 140.066 40.7896 140.326 40.7896C140.65 40.7896 140.911 40.7461 141.104 40.7021C141.537 40.6162 141.645 40.141 141.732 39.512C141.84 38.6034 141.84 36.894 141.84 34.9032V32.9977C141.84 32.9115 141.775 32.8684 141.71 32.8684H133.448C133.382 32.8684 133.317 32.8905 133.317 32.9977V34.9032C133.317 36.894 133.317 38.6034 133.426 39.5348C133.49 40.141 133.62 40.6162 134.269 40.7021C134.572 40.7461 135.048 40.7896 135.373 40.7896C135.61 40.7896 135.718 40.8535 135.718 40.9632C135.718 41.1141 135.546 41.1787 135.286 41.1787C133.88 41.1787 132.517 41.1141 131.911 41.1141C131.415 41.1141 130.052 41.1787 129.186 41.1787C128.904 41.1787 128.753 41.1141 128.753 40.9632C128.753 40.8535 128.84 40.7896 129.1 40.7896C129.423 40.7896 129.684 40.7461 129.878 40.7021C130.311 40.6162 130.419 40.141 130.506 39.512C130.613 38.6034 130.613 36.894 130.613 34.9032V31.0942C130.613 27.8045 130.613 27.1988 130.57 26.5065C130.527 25.7706 130.355 25.4233 129.64 25.2724C129.467 25.2288 129.1 25.2073 128.797 25.2073C128.559 25.2073 128.429 25.165 128.429 25.0132C128.429 24.8617 128.58 24.8182 128.883 24.8182C130.052 24.8182 131.415 24.8829 131.998 24.8829C132.517 24.8829 133.88 24.8182 134.723 24.8182C135.026 24.8182 135.177 24.8617 135.177 25.0132C135.177 25.165 135.048 25.2073 134.788 25.2073C134.616 25.2073 134.421 25.2288 134.161 25.2724C133.577 25.3806 133.404 25.7482 133.361 26.5065C133.317 27.1988 133.317 27.8045 133.317 31.0942V31.5485C133.317 31.6571 133.382 31.6999 133.448 31.6999H141.71Z" fill="#979797"/>
<path d="M166.177 34.5559C166.177 30.4882 163.732 27.9771 160.661 27.9771C158.541 27.9771 156.054 29.1022 156.054 33.6475C156.054 37.4345 158.216 40.4213 161.807 40.4213C163.149 40.4213 166.177 39.7937 166.177 34.5559ZM153.241 34.2106C153.241 31.0722 155.447 27.0031 161.224 27.0031C166.025 27.0031 169.011 29.6659 169.011 33.8857C169.011 38.1058 165.939 41.4175 161.029 41.4175C155.491 41.4175 153.241 37.4782 153.241 34.2106Z" fill="#979797"/>
<path d="M176.706 32.5873C176.706 29.7955 176.727 29.2769 176.682 28.6919C176.64 28.0424 176.466 27.8693 175.86 27.696C175.709 27.6533 175.385 27.6321 175.125 27.6321C174.91 27.6321 174.801 27.567 174.801 27.4362C174.801 27.3064 174.931 27.2642 175.213 27.2642C176.228 27.2642 177.504 27.3063 178.068 27.3063C178.543 27.3063 179.819 27.2642 180.512 27.2642C180.793 27.2642 180.923 27.3064 180.923 27.4362C180.923 27.567 180.814 27.6321 180.62 27.6321C180.403 27.6321 180.296 27.6533 180.058 27.696C179.561 27.7835 179.409 28.0424 179.365 28.6919C179.322 29.2769 179.322 29.7955 179.322 32.5873V35.1621C179.322 37.846 179.841 38.8848 180.772 39.6207C181.615 40.292 182.524 40.3571 183.172 40.3571C183.994 40.3571 184.967 40.1186 185.724 39.3822C186.784 38.3866 186.828 36.7858 186.828 34.9033V32.5873C186.828 29.7955 186.807 29.2769 186.784 28.6919C186.742 28.0638 186.591 27.8693 185.985 27.696C185.834 27.6533 185.508 27.6321 185.292 27.6321C185.076 27.6321 184.967 27.567 184.967 27.4362C184.967 27.3064 185.098 27.2642 185.356 27.2642C186.33 27.2642 187.606 27.3063 187.629 27.3063C187.845 27.3063 189.121 27.2642 189.856 27.2642C190.116 27.2642 190.245 27.3064 190.245 27.4362C190.245 27.567 190.138 27.6321 189.921 27.6321C189.704 27.6321 189.597 27.6533 189.36 27.696C188.84 27.7835 188.71 28.0424 188.666 28.6919C188.645 29.2769 188.624 29.7955 188.624 32.5873V34.5559C188.624 36.6125 188.407 38.7771 186.807 40.0961C185.466 41.2216 184.015 41.4175 182.783 41.4175C181.788 41.4175 179.819 41.3734 178.436 40.1621C177.462 39.3183 176.706 37.9543 176.706 35.2923V32.5873Z" fill="#979797"/>
<path d="M197.253 40.9408C196.95 40.8113 196.885 40.7246 196.885 40.3131C196.885 39.3183 196.971 38.1709 196.993 37.8676C196.993 37.5868 197.08 37.3918 197.232 37.3918C197.404 37.3918 197.425 37.5644 197.425 37.6942C197.425 37.9324 197.49 38.3218 197.6 38.6472C198.009 40.0103 199.437 40.4645 200.627 40.4645C202.271 40.4645 203.266 39.4257 203.266 38.1274C203.266 37.3262 203.072 36.5261 201.384 35.5305L200.281 34.8813C198.031 33.5613 197.296 32.3276 197.296 30.7053C197.296 28.4543 199.459 27.0031 202.099 27.0031C203.331 27.0031 204.304 27.1765 204.802 27.3064C204.974 27.35 205.061 27.4152 205.061 27.545C205.061 27.7835 204.997 28.302 204.997 29.7523C204.997 30.1414 204.909 30.3373 204.758 30.3373C204.629 30.3373 204.564 30.2275 204.564 30.012C204.564 29.8385 204.477 29.2769 204.066 28.7999C203.785 28.4543 203.179 27.935 201.947 27.935C200.584 27.935 199.351 28.6479 199.351 29.9041C199.351 30.7263 199.654 31.3755 201.362 32.3276L202.141 32.7602C204.651 34.1458 205.428 35.5521 205.428 37.219C205.428 38.5824 204.909 39.686 203.526 40.66C202.618 41.3083 201.362 41.4175 200.345 41.4175C199.242 41.4175 198.075 41.3083 197.253 40.9408Z" fill="#979797"/>
<path d="M213.863 32.5874C213.863 29.7955 213.863 29.2769 213.842 28.692C213.799 28.0639 213.626 27.8694 213.02 27.696C212.869 27.6533 212.544 27.6321 212.263 27.6321C212.069 27.6321 211.939 27.567 211.939 27.4363C211.939 27.3064 212.09 27.2643 212.371 27.2643C213.367 27.2643 214.578 27.3064 215.118 27.3064C215.723 27.3064 219.942 27.328 220.31 27.3064C220.656 27.2853 220.959 27.2202 221.11 27.199C221.22 27.1765 221.327 27.1123 221.413 27.1123C221.522 27.1123 221.543 27.199 221.543 27.2853C221.543 27.4152 221.435 27.6321 221.392 28.4754C221.37 28.6704 221.327 29.4702 221.283 29.6872C221.262 29.7734 221.22 29.99 221.068 29.99C220.938 29.99 220.916 29.9042 220.916 29.7523C220.916 29.6221 220.894 29.2982 220.786 29.0811C220.635 28.7576 220.484 28.4966 219.531 28.4103C219.207 28.3671 216.936 28.3245 216.546 28.3245C216.459 28.3245 216.417 28.3892 216.417 28.4966V33.0419C216.417 33.1499 216.438 33.2369 216.546 33.2369C216.979 33.2369 219.445 33.2369 219.878 33.1934C220.332 33.1499 220.612 33.107 220.786 32.9117C220.938 32.7819 221.003 32.6741 221.089 32.6741C221.175 32.6741 221.241 32.7602 221.241 32.8686C221.241 32.9763 221.196 33.2796 221.089 34.2106C221.045 34.5784 221.003 35.3136 221.003 35.4444C221.003 35.5953 220.981 35.8549 220.807 35.8549C220.678 35.8549 220.635 35.7911 220.635 35.7039C220.612 35.5095 220.612 35.2713 220.57 35.0328C220.462 34.6648 220.223 34.384 219.51 34.3189C219.163 34.2752 217 34.2325 216.525 34.2325C216.438 34.2325 216.417 34.3189 216.417 34.4272V35.8986C216.417 36.5262 216.394 38.0834 216.417 38.6251C216.459 39.88 217.044 40.1622 218.991 40.1622C219.488 40.1622 220.288 40.1411 220.786 39.924C221.262 39.7071 221.478 39.3184 221.608 38.5614C221.651 38.3656 221.695 38.2792 221.824 38.2792C221.976 38.2792 221.997 38.5169 221.997 38.7124C221.997 39.123 221.846 40.3782 221.737 40.7462C221.608 41.2217 221.435 41.2217 220.721 41.2217C219.293 41.2217 218.147 41.2004 217.216 41.1564C216.287 41.1353 215.572 41.1143 215.011 41.1143C214.794 41.1143 214.382 41.1353 213.928 41.1353C213.474 41.1564 212.999 41.1789 212.609 41.1789C212.371 41.1789 212.242 41.1143 212.242 40.9844C212.242 40.8981 212.306 40.7898 212.544 40.7898C212.826 40.7898 213.042 40.7673 213.215 40.7247C213.604 40.638 213.711 40.2921 213.777 39.7506C213.863 38.9716 213.863 37.5223 213.863 35.8335V32.5874Z" fill="#979797"/>
</svg>
