<svg width="24" height="25" viewBox="0 0 24 25" fill="none" xmlns="http://www.w3.org/2000/svg">
<g clip-path="url(#clip0_24_12839)">
<path d="M21.6845 18.9308C21.3216 19.7693 20.892 20.5411 20.3942 21.2508C19.7157 22.2181 19.1602 22.8877 18.732 23.2596C18.0684 23.8699 17.3573 24.1825 16.5958 24.2003C16.0492 24.2003 15.3899 24.0447 14.6225 23.7292C13.8526 23.4151 13.1451 23.2596 12.4982 23.2596C11.8197 23.2596 11.092 23.4151 10.3136 23.7292C9.53411 24.0447 8.90613 24.2092 8.426 24.2255C7.6958 24.2566 6.96797 23.9351 6.24147 23.2596C5.77779 22.8552 5.19781 22.1618 4.50301 21.1796C3.75756 20.1308 3.14469 18.9145 2.66455 17.5279C2.15035 16.0302 1.89258 14.5798 1.89258 13.1757C1.89258 11.5673 2.24012 10.1801 2.93625 9.01765C3.48334 8.0839 4.21117 7.34733 5.1221 6.8066C6.03304 6.26588 7.0173 5.99033 8.07727 5.9727C8.65725 5.9727 9.41782 6.1521 10.363 6.50469C11.3055 6.85845 11.9106 7.03785 12.176 7.03785C12.3743 7.03785 13.0466 6.82808 14.1863 6.40987C15.264 6.02203 16.1736 5.86145 16.9188 5.9247C18.938 6.08766 20.4549 6.88364 21.4638 8.31767C19.6579 9.41186 18.7646 10.9444 18.7824 12.9104C18.7987 14.4418 19.3542 15.7161 20.4461 16.7279C20.9409 17.1975 21.4934 17.5605 22.1082 17.8183C21.9749 18.2049 21.8342 18.5753 21.6845 18.9308ZM17.0536 0.707676C17.0536 1.90795 16.6151 3.02864 15.741 4.06594C14.6862 5.29909 13.4104 6.01166 12.0269 5.89922C12.0093 5.75523 11.9991 5.60368 11.9991 5.44442C11.9991 4.29216 12.5007 3.05901 13.3915 2.05075C13.8362 1.54024 14.4018 1.11577 15.0877 0.777154C15.7721 0.443594 16.4195 0.259128 17.0284 0.227539C17.0462 0.387997 17.0536 0.548465 17.0536 0.70766V0.707676Z" fill="white"/>
</g>
<defs>
<clipPath id="clip0_24_12839">
<rect width="24" height="24" fill="white" transform="translate(0 0.227539)"/>
</clipPath>
</defs>
</svg>
