<svg width="24" height="25" viewBox="0 0 24 25" fill="none" xmlns="http://www.w3.org/2000/svg">
<g clip-path="url(#clip0_24_12837)">
<path d="M24 12.2275C24 5.60012 18.6274 0.227539 12 0.227539C5.37258 0.227539 0 5.60012 0 12.2275C0 18.217 4.3882 23.1815 10.125 24.0818V15.6963H7.07812V12.2275H10.125V9.58379C10.125 6.57629 11.9166 4.91504 14.6576 4.91504C15.9701 4.91504 17.3438 5.14941 17.3438 5.14941V8.10254H15.8306C14.34 8.10254 13.875 9.02762 13.875 9.97754V12.2275H17.2031L16.6711 15.6963H13.875V24.0818C19.6118 23.1815 24 18.217 24 12.2275Z" fill="white"/>
</g>
<defs>
<clipPath id="clip0_24_12837">
<rect width="24" height="24" fill="white" transform="translate(0 0.227539)"/>
</clipPath>
</defs>
</svg>
