<svg width="24" height="25" viewBox="0 0 24 25" fill="none" xmlns="http://www.w3.org/2000/svg">
<g clip-path="url(#clip0_24_12838)">
<path d="M23.7633 12.5038C23.7633 11.6881 23.6972 10.8679 23.5561 10.0654H12.2373V14.6864H18.719C18.4501 16.1768 17.5858 17.4952 16.3204 18.3329V21.3313H20.1873C22.4582 19.2413 23.7633 16.1547 23.7633 12.5038Z" fill="white"/>
<path d="M12.2372 24.2279C15.4736 24.2279 18.203 23.1652 20.1916 21.3309L16.3246 18.3326C15.2487 19.0645 13.8598 19.479 12.2416 19.479C9.11096 19.479 6.45653 17.367 5.50412 14.5273H1.51367V17.6183C3.55078 21.6705 7.69997 24.2279 12.2372 24.2279Z" fill="white"/>
<path d="M5.49984 14.5278C4.99718 13.0374 4.99718 11.4236 5.49984 9.93323V6.84229H1.51381C-0.188196 10.2331 -0.188196 14.2279 1.51381 17.6187L5.49984 14.5278Z" fill="white"/>
<path d="M12.2372 4.9772C13.948 4.95074 15.6015 5.59451 16.8405 6.77621L20.2666 3.35016C18.0972 1.31304 15.2179 0.193073 12.2372 0.228348C7.69997 0.228348 3.55078 2.78576 1.51367 6.84235L5.49971 9.93329C6.44772 7.08927 9.10654 4.9772 12.2372 4.9772Z" fill="white"/>
</g>
<defs>
<clipPath id="clip0_24_12838">
<rect width="24" height="24" fill="white" transform="translate(0 0.227539)"/>
</clipPath>
</defs>
</svg>
