<svg width="24" height="25" viewBox="0 0 24 25" fill="none" xmlns="http://www.w3.org/2000/svg">
<g clip-path="url(#clip0_24_12840)">
<path d="M16.8503 0.227539H7.14973C3.20735 0.227539 0 3.43489 0 7.37727V17.0778C0 21.0202 3.20735 24.2275 7.14973 24.2275H16.8503C20.7926 24.2275 24 21.0202 24 17.0778V7.37727C24 3.43489 20.7926 0.227539 16.8503 0.227539ZM21.5856 17.0778C21.5856 19.693 19.4655 21.8131 16.8503 21.8131H7.14973C4.5345 21.8131 2.4144 19.693 2.4144 17.0778V7.37727C2.4144 4.762 4.5345 2.64194 7.14973 2.64194H16.8503C19.4655 2.64194 21.5856 4.762 21.5856 7.37727V17.0778Z" fill="white"/>
<path d="M12.0002 6.02051C8.57754 6.02051 5.79297 8.80508 5.79297 12.2277C5.79297 15.6504 8.57754 18.435 12.0002 18.435C15.4229 18.435 18.2075 15.6504 18.2075 12.2277C18.2075 8.80503 15.4229 6.02051 12.0002 6.02051ZM12.0002 16.0206C9.90547 16.0206 8.20737 14.3225 8.20737 12.2278C8.20737 10.133 9.90551 8.43491 12.0002 8.43491C14.095 8.43491 15.7931 10.133 15.7931 12.2278C15.7931 14.3225 14.0949 16.0206 12.0002 16.0206Z" fill="white"/>
<path d="M18.2188 7.55427C19.0402 7.55427 19.7061 6.88837 19.7061 6.06693C19.7061 5.2455 19.0402 4.57959 18.2188 4.57959C17.3974 4.57959 16.7314 5.2455 16.7314 6.06693C16.7314 6.88837 17.3974 7.55427 18.2188 7.55427Z" fill="white"/>
</g>
<defs>
<clipPath id="clip0_24_12840">
<rect width="24" height="24" fill="white" transform="translate(0 0.227539)"/>
</clipPath>
</defs>
</svg>
