<svg width="22" height="23" viewBox="0 0 22 23" fill="none" xmlns="http://www.w3.org/2000/svg">
<path d="M2.75 3.69098H3.30579C4.24136 3.69098 5.02685 4.39544 5.12831 5.32549L5.87169 12.1398C5.97315 13.0699 6.75864 13.7743 7.69421 13.7743H15.6255C16.4636 13.7743 17.1949 13.2061 17.402 12.394L18.6669 7.43383C18.9626 6.27464 18.0867 5.14746 16.8905 5.14746H6.05M6.07269 17.0972H6.76019M6.07269 17.7847H6.76019M16.156 17.0972H16.8435M16.156 17.7847H16.8435M7.33333 17.441C7.33333 17.9472 6.92293 18.3576 6.41667 18.3576C5.91041 18.3576 5.5 17.9472 5.5 17.441C5.5 16.9347 5.91041 16.5243 6.41667 16.5243C6.92293 16.5243 7.33333 16.9347 7.33333 17.441ZM17.4167 17.441C17.4167 17.9472 17.0063 18.3576 16.5 18.3576C15.9937 18.3576 15.5833 17.9472 15.5833 17.441C15.5833 16.9347 15.9937 16.5243 16.5 16.5243C17.0063 16.5243 17.4167 16.9347 17.4167 17.441Z" stroke="white" stroke-width="2" stroke-linecap="round"/>
</svg>
